<svg width="164" height="157" viewBox="0 0 164 157" fill="none" xmlns="http://www.w3.org/2000/svg">
<path d="M0 105.128C10.9333 114.379 59.2222 124.402 82 128.256C94.6154 128.256 155.59 108.808 164 105.128C158.218 97.2434 130.359 91.4615 123.526 88.8332C132.987 80.4229 142.449 58.8717 145.603 49.4101C123 46.7818 110.385 55.1923 104.077 58.8717C100.397 28.9102 87.7821 7.35897 82 0C73.5897 4.73077 61.5 52.0385 61.5 58.8717C41 48.8845 29.9615 49.4101 18.9231 49.4101C21.5513 68.3332 33.1154 78.846 43.1026 88.8332C21.6564 90.0948 5.43162 100.222 0 105.128Z" fill="#E77212"/>
<path d="M81.4744 156.115V96.1923H104.077" stroke="black" stroke-width="3"/>
</svg>
