<svg width="114" height="115" viewBox="0 0 114 115" fill="none" xmlns="http://www.w3.org/2000/svg">
<circle cx="55.9011" cy="57.0398" r="32.7238" fill="#FF6536"/>
<path d="M72.019 6.73328C73.1912 16.8923 63.716 22.6881 58.8318 24.3162C75.9263 28.7119 72.019 38.4802 76.9032 33.1076C81.7873 27.7351 70.5538 -5.9655 72.019 6.73328Z" fill="#FF6536"/>
<path d="M93.2803 19.9248C90.7748 29.8395 79.8603 31.8998 74.7162 31.6905C89.142 41.8611 82.0254 49.6097 88.497 46.3176C94.9686 43.0255 96.4122 7.53136 93.2803 19.9248Z" fill="#FF6536"/>
<path d="M41.612 6.13628C49.1029 13.0981 45.6646 23.6598 43.0091 28.0705C58.8607 20.307 62.236 30.2717 62.459 23.0143C62.6819 15.7569 32.2485 -2.566 41.612 6.13628Z" fill="#FF6536"/>
<path d="M18.4108 21.2604C28.4022 23.44 30.8188 34.2812 30.7781 39.4294C40.4708 24.6783 48.4483 31.5373 44.9461 25.177C41.4439 18.8167 5.92145 18.536 18.4108 21.2604Z" fill="#FF6536"/>
<path d="M4.09379 46.6855C13.7604 43.3485 21.4646 51.3496 24.1084 55.7672C24.7112 38.1269 35.0926 39.834 28.7925 36.2244C22.4925 32.6149 -7.9895 50.8568 4.09379 46.6855Z" fill="#FF6536"/>
<path d="M9.14767 78.7268C14.9299 70.292 25.8829 72.1367 30.6367 74.1134C20.6224 59.5786 29.981 54.7719 22.77 55.6207C15.559 56.4695 1.91994 89.2704 9.14767 78.7268Z" fill="#FF6536"/>
<path d="M27.7461 101.742C28.3514 91.5338 38.6874 87.467 43.7797 86.7096C27.7051 79.4191 33.2455 70.4753 27.5045 74.9206C21.7636 79.3659 26.9894 114.503 27.7461 101.742Z" fill="#FF6536"/>
<path d="M53.7883 109.595C49.7053 100.219 57.0792 91.9127 61.2765 88.9314C43.6431 89.7104 44.5329 79.2273 41.4272 85.7904C38.3215 92.3535 58.8921 121.315 53.7883 109.595Z" fill="#FF6536"/>
<path d="M84.9144 100.727C75.8464 95.9989 76.3628 84.9037 77.7544 79.947C64.527 91.6337 58.6316 82.9199 60.3399 89.9768C62.0483 97.0338 96.2494 106.636 84.9144 100.727Z" fill="#FF6536"/>
<path d="M105.064 78.2503C94.8847 79.23 89.2693 69.6467 87.734 64.7326C83.0154 81.7408 73.3228 77.6492 78.6019 82.6342C83.8811 87.6192 117.788 77.0258 105.064 78.2503Z" fill="#FF6536"/>
<path d="M108.752 53.2039C99.8377 58.2149 90.8275 51.7197 87.4367 47.8456C89.9965 65.3096 79.4772 65.4856 86.3209 67.911C93.1646 70.3364 119.895 46.94 108.752 53.2039Z" fill="#FF6536"/>
</svg>
